<svg width="720" height="520" viewBox="0 0 720 520" fill="none" xmlns="http://www.w3.org/2000/svg" role="img" aria-label="Premium ADA voucher stack">
  <rect width="720" height="520" rx="20" fill="#EEF8FF"/>
  <path d="M76 396H632" stroke="#A8C8D8" stroke-width="2"/>
  <g filter="url(#shadow)">
    <rect x="164" y="144" width="382" height="224" rx="20" fill="#08131F"/>
    <rect x="184" y="164" width="342" height="184" rx="15" stroke="#D7F7FF" stroke-opacity=".28"/>
    <circle cx="258" cy="256" r="44" stroke="#9BE7D6" stroke-width="2"/>
    <circle cx="258" cy="256" r="8" fill="#EAC46A"/>
    <circle cx="258" cy="214" r="5" fill="#7CC7FF"/>
    <circle cx="258" cy="298" r="5" fill="#7CC7FF"/>
    <circle cx="216" cy="256" r="5" fill="#7CC7FF"/>
    <circle cx="300" cy="256" r="5" fill="#7CC7FF"/>
    <path d="M351 221H481" stroke="#D7F7FF" stroke-width="7" stroke-linecap="round"/>
    <path d="M351 254H508" stroke="#9BE7D6" stroke-width="5" stroke-linecap="round"/>
    <path d="M351 285H456" stroke="#EAC46A" stroke-width="5" stroke-linecap="round"/>
    <rect x="350" y="309" width="96" height="18" rx="9" fill="#D7F7FF" fill-opacity=".11"/>
  </g>
  <g opacity=".9">
    <rect x="112" y="198" width="190" height="116" rx="16" fill="#FFFFFF" stroke="#B8D8E8"/>
    <path d="M138 232H236" stroke="#183044" stroke-width="6" stroke-linecap="round"/>
    <path d="M138 260H264" stroke="#1FA7A0" stroke-width="5" stroke-linecap="round"/>
    <path d="M138 286H210" stroke="#D6A842" stroke-width="5" stroke-linecap="round"/>
  </g>
  <g opacity=".8">
    <rect x="468" y="92" width="138" height="88" rx="14" fill="#FFFFFF" stroke="#B8D8E8"/>
    <path d="M492 126H562" stroke="#183044" stroke-width="5" stroke-linecap="round"/>
    <path d="M492 150H580" stroke="#1FA7A0" stroke-width="4" stroke-linecap="round"/>
  </g>
  <defs>
    <filter id="shadow" x="130" y="116" width="450" height="292" filterUnits="userSpaceOnUse" color-interpolation-filters="sRGB">
      <feDropShadow dx="0" dy="18" stdDeviation="18" flood-color="#12344A" flood-opacity=".22"/>
    </filter>
  </defs>
</svg>
